{"title":"The Avengers 2012 EXTENDED Edition 720p AC3 2.0 Sphinctone1","uid":15389964,"size":3112571481,"categoryP":"video","categoryS":"movies","magnet":"?xt=urn:btih:7ec1e56ac6a0c91c532ec82a222424c594996435&amp;dn=The+Avengers+2012+EXTENDED+Edition+720p+AC3+2.0+Sphinctone1&amp;tr=udp%3A%2F%2Ftracker.leechers-paradise.org%3A6969&amp;tr=udp%3A%2F%2Fzer0day.ch%3A1337&amp;tr=udp%3A%2F%2Fopen.demonii.com%3A1337&amp;tr=udp%3A%2F%2Ftracker.coppersurfer.tk%3A6969&amp;tr=udp%3A%2F%2Fexodus.desync.com%3A6969","seeders":5,"leechers":4,"uploader":"Sphinctone1","files":4,"time":1469321746,"description":"Edited by :Samspider\r\nRe-Encoded for Torrent Release:Sphinctone1\r\nThatrical Release Run Time:2h23m \r\nThis Version              :2h34m\r\n[b]Please Seed for as long as you can![/b]\r\n[color=red]VLC Screen Captures Below[/color]\r\nFile size                                : 2.87 GiB\r\nDuration                                 : 2h 34mn \r\nOverall bit rate                         : 2 654 Kbps\r\nEncoded date                             : UTC 2015-09-16 22:30:58\r\nWriting application                      : mkvmerge v7.7.0 ('Six Voices') 32bit built on Feb 28 2015 23:23:00\r\nWriting library                          : libebml v1.3.1 + libmatroska v1.4.2 / Lavf55.12.0\r\n\r\nVideo\r\nID                                       : 1\r\nFormat                                   : AVC\r\nFormat/Info                              : Advanced Video Codec\r\nFormat profile                           :   \r\nFormat settings, CABAC                   : Yes\r\nFormat settings, ReFrames                : 3 frames\r\nCodec ID                                 : V_MPEG4/ISO/AVC\r\nDuration                                 : 2h 34mn\r\nBit rate                                 : 2 400 Kbps\r\nWidth                                    : 1 280 pixels\r\nHeight                                   : 740 pixels\r\nDisplay aspect ratio                     : 1.730\r\nFrame rate mode                          : Constant\r\nFrame rate                               : 23.976 (24000/1001) fps\r\nColor space                              : YUV\r\nChroma subsampling                       : 4:2:0\r\nBit depth                                : 8 bits\r\nScan type                                : Progressive\r\nBits/(Pixel*Frame)                       : 0.106\r\nStream size                              : 2.59 GiB (90%)\r\nWriting library                          : x264 core 142 r2479 dd79a61\r\n\r\n\r\nAudio\r\nID                                       : 2\r\nFormat                                   : AC-3\r\nFormat/Info                              : Audio Coding 3\r\nMode extension                           : CM (complete main)\r\nFormat settings, Endianness              : Big\r\nCodec ID                                 : A_AC3\r\nDuration                                 : 2h 34mn\r\nBit rate mode                            : Constant\r\nBit rate                                 : 256 Kbps\r\nChannel(s)                               : 2 channels\r\nChannel positions                        : Front: L R\r\nSampling rate                            : 48.0 KHz\r\nFrame rate                               : 31.250 fps (1536 spf)\r\nCompression mode                         : Lossy\r\nDelay relative to video                  : -5ms\r\nStream size                              : 283 MiB (10%)\r\nTitle                                    : Stereo\r\nLanguage                                 : English\r\nDefault                                  : Yes\r\nForced                                   : No\r\n\r\nText\r\nID                                       : 3\r\nFormat                                   : UTF-8\r\nCodec ID                                 : S_TEXT/UTF8\r\nCodec ID/Info                            : UTF-8 Plain Text\r\nDuration                                 : 3mn 46s\r\nBit rate                                 : 24 bps\r\nCount of elements                        : 31\r\nStream size                              : 698 Bytes (0%)\r\nDefault                                  : Yes\r\nForced                                   : No\r\n\r\n\r\n\r\n[u][b]Screen Shots(Hosted)[/b][/u]\r\n[url=https://postimg.org/image/62u0c698n/][img]https://s31.postimg.org/62u0c698n/AE1.jpg[/img][/url] [url=https://postimg.org/image/lctvjd4qv/][img]https://s31.postimg.org/lctvjd4qv/AE2.jpg[/img][/url]\r\n\r\n[url=https://postimg.org/image/40tixxb9j/][img]https://s31.postimg.org/40tixxb9j/AE3.jpg[/img][/url] [url=https://postimg.org/image/qe19kqc7b/][img]https://s31.postimg.org/qe19kqc7b/AE4.jpg[/img][/url]\r\n\r\n[url=https://postimg.org/image/wt0aheix3/][img]https://s31.postimg.org/wt0aheix3/AE5.jpg[/img][/url] [url=https://postimg.org/image/s8e42gz7r/][img]https://s31.postimg.org/s8e42gz7r/AE6.jpg[/img][/url]\r\n\r\n[url=https://postimg.org/image/jrelrjuiv/][img]https://s31.postimg.org/jrelrjuiv/AE7.jpg[/img][/url] [url=https://postimg.org/image/8gby36nnr/][img]https://s31.postimg.org/8gby36nnr/AE8.jpg[/img][/url]\r\n\r\n[url=https://postimg.org/image/eijktoc3r/][img]https://s31.postimg.org/eijktoc3r/AE9.jpg[/img][/url] [url=https://postimg.org/image/4mn37rvpj/][img]https://s31.postimg.org/4mn37rvpj/AE10.jpg[/img][/url]","torrent":{"xt":"urn:btih:7ec1e56ac6a0c91c532ec82a222424c594996435","amp;dn":"The+Avengers+2012+EXTENDED+Edition+720p+AC3+2.0+Sphinctone1","amp;tr":["udp%3A%2F%2Ftracker.leechers-paradise.org%3A6969","udp%3A%2F%2Fzer0day.ch%3A1337","udp%3A%2F%2Fopen.demonii.com%3A1337","udp%3A%2F%2Ftracker.coppersurfer.tk%3A6969","udp%3A%2F%2Fexodus.desync.com%3A6969"],"infoHash":"7ec1e56ac6a0c91c532ec82a222424c594996435","infoHashBuffer":{"type":"Buffer","data":[126,193,229,106,198,160,201,28,83,46,200,42,34,36,36,197,148,153,100,53]},"announce":[],"urlList":[]}}